<mxfile host="app.diagrams.net" modified="2020-10-14T11:26:36.206Z" agent="5.0 (Windows NT 10.0; WOW64) AppleWebKit/537.36 (KHTML, like Gecko) Chrome/78.0.3904.108 Safari/537.36" etag="B3vd8UzHwjMJKlQR_O0z" version="13.7.9" type="github">
  <diagram id="wFE0QG_FPsp0jaGvCLVb" name="Page-1">
    <mxGraphModel dx="1822" dy="741" grid="0" gridSize="10" guides="1" tooltips="1" connect="1" arrows="1" fold="1" page="0" pageScale="1" pageWidth="850" pageHeight="1100" math="0" shadow="0">
      <root>
        <mxCell id="0" />
        <mxCell id="1" parent="0" />
        <mxCell id="HQBOAhG516KsrZSRLM5k-17" value="" style="rounded=0;whiteSpace=wrap;html=1;fillColor=#cce5ff;strokeColor=#36393d;" vertex="1" parent="1">
          <mxGeometry x="34" y="245" width="670" height="333" as="geometry" />
        </mxCell>
        <mxCell id="HQBOAhG516KsrZSRLM5k-48" value="" style="rounded=1;whiteSpace=wrap;html=1;fillColor=#d5e8d4;strokeColor=#82b366;" vertex="1" parent="1">
          <mxGeometry x="71" y="413" width="615.5" height="141.5" as="geometry" />
        </mxCell>
        <mxCell id="HQBOAhG516KsrZSRLM5k-1" value="" style="rounded=0;whiteSpace=wrap;html=1;fillColor=#cce5ff;strokeColor=#36393d;" vertex="1" parent="1">
          <mxGeometry x="34" y="103" width="670" height="126" as="geometry" />
        </mxCell>
        <mxCell id="HQBOAhG516KsrZSRLM5k-13" value="" style="rounded=1;whiteSpace=wrap;html=1;fillColor=#d5e8d4;strokeColor=#82b366;" vertex="1" parent="1">
          <mxGeometry x="309" y="122" width="371" height="90" as="geometry" />
        </mxCell>
        <mxCell id="HQBOAhG516KsrZSRLM5k-11" value="" style="rounded=1;whiteSpace=wrap;html=1;fillColor=#d5e8d4;strokeColor=#82b366;" vertex="1" parent="1">
          <mxGeometry x="71" y="122" width="227" height="90" as="geometry" />
        </mxCell>
        <mxCell id="HQBOAhG516KsrZSRLM5k-2" value="客&lt;br&gt;户&lt;br&gt;端" style="text;html=1;strokeColor=none;fillColor=none;align=center;verticalAlign=middle;whiteSpace=wrap;rounded=0;" vertex="1" parent="1">
          <mxGeometry x="36" y="175" width="40" height="20" as="geometry" />
        </mxCell>
        <mxCell id="HQBOAhG516KsrZSRLM5k-3" value="企业主app" style="rounded=1;whiteSpace=wrap;html=1;" vertex="1" parent="1">
          <mxGeometry x="318" y="160" width="66" height="35" as="geometry" />
        </mxCell>
        <mxCell id="HQBOAhG516KsrZSRLM5k-4" value="官网" style="rounded=1;whiteSpace=wrap;html=1;" vertex="1" parent="1">
          <mxGeometry x="76" y="155" width="66" height="35" as="geometry" />
        </mxCell>
        <mxCell id="HQBOAhG516KsrZSRLM5k-5" value="微信公众号" style="rounded=1;whiteSpace=wrap;html=1;" vertex="1" parent="1">
          <mxGeometry x="389" y="161" width="66" height="35" as="geometry" />
        </mxCell>
        <mxCell id="HQBOAhG516KsrZSRLM5k-6" value="微信小程序" style="rounded=1;whiteSpace=wrap;html=1;" vertex="1" parent="1">
          <mxGeometry x="462.5" y="161" width="66" height="35" as="geometry" />
        </mxCell>
        <mxCell id="HQBOAhG516KsrZSRLM5k-7" value="支付宝&lt;br&gt;小程序" style="rounded=1;whiteSpace=wrap;html=1;" vertex="1" parent="1">
          <mxGeometry x="536" y="161" width="66" height="35" as="geometry" />
        </mxCell>
        <mxCell id="HQBOAhG516KsrZSRLM5k-8" value="易接单" style="rounded=1;whiteSpace=wrap;html=1;" vertex="1" parent="1">
          <mxGeometry x="611" y="160" width="66" height="35" as="geometry" />
        </mxCell>
        <mxCell id="HQBOAhG516KsrZSRLM5k-9" value="鹊桥" style="rounded=1;whiteSpace=wrap;html=1;" vertex="1" parent="1">
          <mxGeometry x="149" y="156" width="66" height="35" as="geometry" />
        </mxCell>
        <mxCell id="HQBOAhG516KsrZSRLM5k-10" value="星盘" style="rounded=1;whiteSpace=wrap;html=1;" vertex="1" parent="1">
          <mxGeometry x="222" y="156" width="66" height="35" as="geometry" />
        </mxCell>
        <mxCell id="HQBOAhG516KsrZSRLM5k-12" value="pc端" style="text;html=1;strokeColor=none;fillColor=none;align=center;verticalAlign=middle;whiteSpace=wrap;rounded=0;" vertex="1" parent="1">
          <mxGeometry x="184" y="126" width="40" height="20" as="geometry" />
        </mxCell>
        <mxCell id="HQBOAhG516KsrZSRLM5k-14" value="无线端" style="text;html=1;strokeColor=none;fillColor=none;align=center;verticalAlign=middle;whiteSpace=wrap;rounded=0;" vertex="1" parent="1">
          <mxGeometry x="513" y="126" width="40" height="20" as="geometry" />
        </mxCell>
        <mxCell id="HQBOAhG516KsrZSRLM5k-18" value="" style="rounded=0;html=1;whiteSpace=wrap;labelBorderColor=none;glass=0;sketch=0;fillColor=#cce5ff;strokeColor=#36393d;" vertex="1" parent="1">
          <mxGeometry x="718" y="105" width="111" height="573" as="geometry" />
        </mxCell>
        <mxCell id="HQBOAhG516KsrZSRLM5k-19" value="前台下单交易" style="rounded=1;whiteSpace=wrap;html=1;" vertex="1" parent="1">
          <mxGeometry x="81.25" y="453.5" width="66" height="35" as="geometry" />
        </mxCell>
        <mxCell id="HQBOAhG516KsrZSRLM5k-20" value="订单录入" style="rounded=1;whiteSpace=wrap;html=1;" vertex="1" parent="1">
          <mxGeometry x="81.25" y="506.5" width="66" height="35" as="geometry" />
        </mxCell>
        <mxCell id="HQBOAhG516KsrZSRLM5k-21" value="阿里云工商订单承接" style="rounded=1;whiteSpace=wrap;html=1;" vertex="1" parent="1">
          <mxGeometry x="504.25" y="452.5" width="66" height="35" as="geometry" />
        </mxCell>
        <mxCell id="HQBOAhG516KsrZSRLM5k-22" value="阿里云订单云上园区" style="rounded=1;whiteSpace=wrap;html=1;" vertex="1" parent="1">
          <mxGeometry x="188.75" y="453.5" width="66" height="35" as="geometry" />
        </mxCell>
        <mxCell id="HQBOAhG516KsrZSRLM5k-23" value="销战营销" style="rounded=1;whiteSpace=wrap;html=1;" vertex="1" parent="1">
          <mxGeometry x="504.25" y="506.5" width="66" height="35" as="geometry" />
        </mxCell>
        <mxCell id="HQBOAhG516KsrZSRLM5k-24" value="绑定客户" style="rounded=1;whiteSpace=wrap;html=1;" vertex="1" parent="1">
          <mxGeometry x="188.75" y="506.5" width="66" height="35" as="geometry" />
        </mxCell>
        <mxCell id="HQBOAhG516KsrZSRLM5k-25" value="提炼线索" style="rounded=1;whiteSpace=wrap;html=1;" vertex="1" parent="1">
          <mxGeometry x="289.25" y="453.5" width="66" height="35" as="geometry" />
        </mxCell>
        <mxCell id="HQBOAhG516KsrZSRLM5k-26" value="转化合同" style="rounded=1;whiteSpace=wrap;html=1;" vertex="1" parent="1">
          <mxGeometry x="290.25" y="506.5" width="66" height="35" as="geometry" />
        </mxCell>
        <mxCell id="HQBOAhG516KsrZSRLM5k-27" value="星盘数据订正" style="rounded=1;whiteSpace=wrap;html=1;" vertex="1" parent="1">
          <mxGeometry x="610.25" y="506.5" width="66" height="35" as="geometry" />
        </mxCell>
        <mxCell id="HQBOAhG516KsrZSRLM5k-28" value="商品未报价告警" style="rounded=1;whiteSpace=wrap;html=1;" vertex="1" parent="1">
          <mxGeometry x="610.25" y="453.5" width="66" height="35" as="geometry" />
        </mxCell>
        <mxCell id="HQBOAhG516KsrZSRLM5k-29" value="网商云谷" style="rounded=1;whiteSpace=wrap;html=1;" vertex="1" parent="1">
          <mxGeometry x="394.25" y="508.5" width="66" height="35" as="geometry" />
        </mxCell>
        <mxCell id="HQBOAhG516KsrZSRLM5k-30" value="商品未报价告警" style="rounded=1;whiteSpace=wrap;html=1;" vertex="1" parent="1">
          <mxGeometry x="394.25" y="453.5" width="66" height="35" as="geometry" />
        </mxCell>
        <mxCell id="HQBOAhG516KsrZSRLM5k-33" value="" style="rounded=0;whiteSpace=wrap;html=1;fillColor=#cce5ff;strokeColor=#36393d;" vertex="1" parent="1">
          <mxGeometry x="34.25" y="592" width="670" height="85" as="geometry" />
        </mxCell>
        <mxCell id="HQBOAhG516KsrZSRLM5k-34" value="用户中心" style="rounded=1;whiteSpace=wrap;html=1;" vertex="1" parent="1">
          <mxGeometry x="738" y="156" width="66" height="35" as="geometry" />
        </mxCell>
        <mxCell id="HQBOAhG516KsrZSRLM5k-35" value="依赖服务" style="text;html=1;strokeColor=none;fillColor=none;align=center;verticalAlign=middle;whiteSpace=wrap;rounded=0;glass=0;sketch=0;" vertex="1" parent="1">
          <mxGeometry x="751" y="122" width="51" height="20" as="geometry" />
        </mxCell>
        <mxCell id="HQBOAhG516KsrZSRLM5k-36" value="消息中心" style="rounded=1;whiteSpace=wrap;html=1;" vertex="1" parent="1">
          <mxGeometry x="740.5" y="225" width="66" height="35" as="geometry" />
        </mxCell>
        <mxCell id="HQBOAhG516KsrZSRLM5k-37" value="商品中心" style="rounded=1;whiteSpace=wrap;html=1;" vertex="1" parent="1">
          <mxGeometry x="740.5" y="296.25" width="66" height="35" as="geometry" />
        </mxCell>
        <mxCell id="HQBOAhG516KsrZSRLM5k-38" value="客户服务" style="rounded=1;whiteSpace=wrap;html=1;" vertex="1" parent="1">
          <mxGeometry x="740.5" y="366" width="66" height="35" as="geometry" />
        </mxCell>
        <mxCell id="HQBOAhG516KsrZSRLM5k-40" value="合同服务" style="rounded=1;whiteSpace=wrap;html=1;" vertex="1" parent="1">
          <mxGeometry x="738" y="433" width="66" height="35" as="geometry" />
        </mxCell>
        <mxCell id="HQBOAhG516KsrZSRLM5k-42" value="mysql" style="strokeWidth=2;html=1;shape=mxgraph.flowchart.database;whiteSpace=wrap;rounded=1;glass=0;sketch=0;fillColor=#ffffff;" vertex="1" parent="1">
          <mxGeometry x="157" y="604.5" width="60" height="60" as="geometry" />
        </mxCell>
        <mxCell id="HQBOAhG516KsrZSRLM5k-43" value="redis" style="strokeWidth=2;html=1;shape=mxgraph.flowchart.database;whiteSpace=wrap;rounded=1;glass=0;sketch=0;fillColor=#ffffff;" vertex="1" parent="1">
          <mxGeometry x="348.5" y="603" width="60" height="60" as="geometry" />
        </mxCell>
        <mxCell id="HQBOAhG516KsrZSRLM5k-44" value="数据&lt;br&gt;存储" style="text;html=1;strokeColor=none;fillColor=none;align=center;verticalAlign=middle;whiteSpace=wrap;rounded=0;glass=0;sketch=0;" vertex="1" parent="1">
          <mxGeometry x="52" y="624.5" width="40" height="20" as="geometry" />
        </mxCell>
        <mxCell id="HQBOAhG516KsrZSRLM5k-45" value="核&lt;br&gt;心&lt;br&gt;模&lt;br&gt;块" style="text;html=1;strokeColor=none;fillColor=none;align=center;verticalAlign=middle;whiteSpace=wrap;rounded=0;glass=0;sketch=0;" vertex="1" parent="1">
          <mxGeometry x="31" y="389" width="40" height="20" as="geometry" />
        </mxCell>
        <mxCell id="HQBOAhG516KsrZSRLM5k-47" value="es" style="strokeWidth=2;html=1;shape=mxgraph.flowchart.database;whiteSpace=wrap;rounded=1;glass=0;sketch=0;fillColor=#ffffff;" vertex="1" parent="1">
          <mxGeometry x="528.5" y="604.5" width="60" height="60" as="geometry" />
        </mxCell>
        <mxCell id="HQBOAhG516KsrZSRLM5k-49" value="订单模块" style="text;html=1;strokeColor=none;fillColor=none;align=center;verticalAlign=middle;whiteSpace=wrap;rounded=0;glass=0;sketch=0;" vertex="1" parent="1">
          <mxGeometry x="341.5" y="423.5" width="74" height="20" as="geometry" />
        </mxCell>
        <mxCell id="HQBOAhG516KsrZSRLM5k-50" value="" style="rounded=1;whiteSpace=wrap;html=1;fillColor=#d5e8d4;strokeColor=#82b366;" vertex="1" parent="1">
          <mxGeometry x="64.5" y="263" width="615.5" height="124" as="geometry" />
        </mxCell>
        <mxCell id="HQBOAhG516KsrZSRLM5k-52" value="平台线索&lt;br&gt;对接" style="rounded=1;whiteSpace=wrap;html=1;" vertex="1" parent="1">
          <mxGeometry x="104.75" y="298.5" width="66" height="35" as="geometry" />
        </mxCell>
        <mxCell id="HQBOAhG516KsrZSRLM5k-54" value="网商云谷" style="rounded=1;whiteSpace=wrap;html=1;" vertex="1" parent="1">
          <mxGeometry x="495" y="298.25" width="66" height="35" as="geometry" />
        </mxCell>
        <mxCell id="HQBOAhG516KsrZSRLM5k-56" value="线索分配&lt;br&gt;跟进" style="rounded=1;whiteSpace=wrap;html=1;" vertex="1" parent="1">
          <mxGeometry x="197.75" y="298.5" width="66" height="35" as="geometry" />
        </mxCell>
        <mxCell id="HQBOAhG516KsrZSRLM5k-57" value="销售待跟进&lt;br&gt;预警" style="rounded=1;whiteSpace=wrap;html=1;" vertex="1" parent="1">
          <mxGeometry x="292.25" y="298.5" width="66" height="34.75" as="geometry" />
        </mxCell>
        <mxCell id="HQBOAhG516KsrZSRLM5k-61" value="dump中心" style="rounded=1;whiteSpace=wrap;html=1;fillColor=#7A7A7A;strokeColor=none;" vertex="1" parent="1">
          <mxGeometry x="197.75" y="346" width="66" height="35" as="geometry" />
        </mxCell>
        <mxCell id="HQBOAhG516KsrZSRLM5k-62" value="流转加盟商" style="rounded=1;whiteSpace=wrap;html=1;" vertex="1" parent="1">
          <mxGeometry x="394.25" y="298.5" width="66" height="35" as="geometry" />
        </mxCell>
        <mxCell id="HQBOAhG516KsrZSRLM5k-63" value="线索模块" style="text;html=1;strokeColor=none;fillColor=none;align=center;verticalAlign=middle;whiteSpace=wrap;rounded=0;glass=0;sketch=0;" vertex="1" parent="1">
          <mxGeometry x="329" y="270.5" width="74" height="20" as="geometry" />
        </mxCell>
        <mxCell id="HQBOAhG516KsrZSRLM5k-64" value="短信服务" style="rounded=1;whiteSpace=wrap;html=1;" vertex="1" parent="1">
          <mxGeometry x="738" y="503" width="66" height="35" as="geometry" />
        </mxCell>
        <mxCell id="HQBOAhG516KsrZSRLM5k-65" value="码平台" style="rounded=1;whiteSpace=wrap;html=1;" vertex="1" parent="1">
          <mxGeometry x="738" y="584" width="66" height="35" as="geometry" />
        </mxCell>
        <mxCell id="HQBOAhG516KsrZSRLM5k-69" value="" style="rounded=0;html=1;whiteSpace=wrap;labelBorderColor=none;glass=0;sketch=0;fillColor=#cce5ff;strokeColor=#36393d;" vertex="1" parent="1">
          <mxGeometry x="-94" y="104" width="111" height="573" as="geometry" />
        </mxCell>
        <mxCell id="HQBOAhG516KsrZSRLM5k-70" value="eureka" style="rounded=1;whiteSpace=wrap;html=1;" vertex="1" parent="1">
          <mxGeometry x="-74" y="155" width="66" height="35" as="geometry" />
        </mxCell>
        <mxCell id="HQBOAhG516KsrZSRLM5k-71" value="中间件" style="text;html=1;strokeColor=none;fillColor=none;align=center;verticalAlign=middle;whiteSpace=wrap;rounded=0;glass=0;sketch=0;" vertex="1" parent="1">
          <mxGeometry x="-61" y="121" width="51" height="20" as="geometry" />
        </mxCell>
        <mxCell id="HQBOAhG516KsrZSRLM5k-72" value="rabbitmq" style="rounded=1;whiteSpace=wrap;html=1;" vertex="1" parent="1">
          <mxGeometry x="-71.5" y="222" width="66" height="35" as="geometry" />
        </mxCell>
        <mxCell id="HQBOAhG516KsrZSRLM5k-73" value="racketMq" style="rounded=1;whiteSpace=wrap;html=1;" vertex="1" parent="1">
          <mxGeometry x="-71.5" y="286" width="66" height="35" as="geometry" />
        </mxCell>
        <mxCell id="HQBOAhG516KsrZSRLM5k-74" value="canal" style="rounded=1;whiteSpace=wrap;html=1;" vertex="1" parent="1">
          <mxGeometry x="-71.5" y="351.25" width="66" height="35" as="geometry" />
        </mxCell>
        <mxCell id="HQBOAhG516KsrZSRLM5k-75" value="zookeeper" style="rounded=1;whiteSpace=wrap;html=1;" vertex="1" parent="1">
          <mxGeometry x="-71.5" y="421.5" width="66" height="35" as="geometry" />
        </mxCell>
        <mxCell id="HQBOAhG516KsrZSRLM5k-76" value="elastic&lt;br&gt;search" style="rounded=1;whiteSpace=wrap;html=1;" vertex="1" parent="1">
          <mxGeometry x="-71.5" y="488.5" width="66" height="35" as="geometry" />
        </mxCell>
        <mxCell id="HQBOAhG516KsrZSRLM5k-77" value="skywalking" style="rounded=1;whiteSpace=wrap;html=1;" vertex="1" parent="1">
          <mxGeometry x="-71.5" y="622.5" width="66" height="35" as="geometry" />
        </mxCell>
        <mxCell id="HQBOAhG516KsrZSRLM5k-78" value="xxl-job" style="rounded=1;whiteSpace=wrap;html=1;" vertex="1" parent="1">
          <mxGeometry x="-71.5" y="556.5" width="66" height="35" as="geometry" />
        </mxCell>
        <mxCell id="HQBOAhG516KsrZSRLM5k-82" value="线索公海" style="rounded=1;whiteSpace=wrap;html=1;" vertex="1" parent="1">
          <mxGeometry x="588.5" y="298.5" width="66" height="35" as="geometry" />
        </mxCell>
        <mxCell id="HQBOAhG516KsrZSRLM5k-83" value="线索录入" style="rounded=1;whiteSpace=wrap;html=1;" vertex="1" parent="1">
          <mxGeometry x="104.75" y="346" width="66" height="35" as="geometry" />
        </mxCell>
      </root>
    </mxGraphModel>
  </diagram>
</mxfile>
